<svg id="visual" viewBox="0 0 900 100" width="900" height="100" xmlns="http://www.w3.org/2000/svg"
     xmlns:xlink="http://www.w3.org/1999/xlink" version="1.1">
    <rect x="0" y="0" width="900" height="100" fill="#8c8483"></rect>
    <path d="M0 36L8.3 39.8C16.7 43.7 33.3 51.3 50 52.2C66.7 53 83.3 47 100 43.3C116.7 39.7 133.3 38.3 150 39.7C166.7 41 183.3 45 200 48.8C216.7 52.7 233.3 56.3 250 58.3C266.7 60.3 283.3 60.7 300 60.7C316.7 60.7 333.3 60.3 350 59.5C366.7 58.7 383.3 57.3 400 54.8C416.7 52.3 433.3 48.7 450 49.2C466.7 49.7 483.3 54.3 500 56.8C516.7 59.3 533.3 59.7 550 58.5C566.7 57.3 583.3 54.7 600 54.3C616.7 54 633.3 56 650 55C666.7 54 683.3 50 700 49C716.7 48 733.3 50 750 50.7C766.7 51.3 783.3 50.7 800 48.5C816.7 46.3 833.3 42.7 850 40.2C866.7 37.7 883.3 36.3 891.7 35.7L900 35L900 0L891.7 0C883.3 0 866.7 0 850 0C833.3 0 816.7 0 800 0C783.3 0 766.7 0 750 0C733.3 0 716.7 0 700 0C683.3 0 666.7 0 650 0C633.3 0 616.7 0 600 0C583.3 0 566.7 0 550 0C533.3 0 516.7 0 500 0C483.3 0 466.7 0 450 0C433.3 0 416.7 0 400 0C383.3 0 366.7 0 350 0C333.3 0 316.7 0 300 0C283.3 0 266.7 0 250 0C233.3 0 216.7 0 200 0C183.3 0 166.7 0 150 0C133.3 0 116.7 0 100 0C83.3 0 66.7 0 50 0C33.3 0 16.7 0 8.3 0L0 0Z"
          fill="#8c8483"></path>
    <path d="M0 29L8.3 31.3C16.7 33.7 33.3 38.3 50 41.2C66.7 44 83.3 45 100 44C116.7 43 133.3 40 150 40C166.7 40 183.3 43 200 41.5C216.7 40 233.3 34 250 31.5C266.7 29 283.3 30 300 30.7C316.7 31.3 333.3 31.7 350 32.7C366.7 33.7 383.3 35.3 400 38.2C416.7 41 433.3 45 450 45.7C466.7 46.3 483.3 43.7 500 40C516.7 36.3 533.3 31.7 550 30.2C566.7 28.7 583.3 30.3 600 33.7C616.7 37 633.3 42 650 43.3C666.7 44.7 683.3 42.3 700 41.7C716.7 41 733.3 42 750 41.2C766.7 40.3 783.3 37.7 800 37.8C816.7 38 833.3 41 850 39.8C866.7 38.7 883.3 33.3 891.7 30.7L900 28L900 0L891.7 0C883.3 0 866.7 0 850 0C833.3 0 816.7 0 800 0C783.3 0 766.7 0 750 0C733.3 0 716.7 0 700 0C683.3 0 666.7 0 650 0C633.3 0 616.7 0 600 0C583.3 0 566.7 0 550 0C533.3 0 516.7 0 500 0C483.3 0 466.7 0 450 0C433.3 0 416.7 0 400 0C383.3 0 366.7 0 350 0C333.3 0 316.7 0 300 0C283.3 0 266.7 0 250 0C233.3 0 216.7 0 200 0C183.3 0 166.7 0 150 0C133.3 0 116.7 0 100 0C83.3 0 66.7 0 50 0C33.3 0 16.7 0 8.3 0L0 0Z"
          fill="#675f5e"></path>
    <path d="M0 33L8.3 32.3C16.7 31.7 33.3 30.3 50 27.2C66.7 24 83.3 19 100 19.2C116.7 19.3 133.3 24.7 150 25C166.7 25.3 183.3 20.7 200 19.2C216.7 17.7 233.3 19.3 250 19.7C266.7 20 283.3 19 300 20.3C316.7 21.7 333.3 25.3 350 27.3C366.7 29.3 383.3 29.7 400 30C416.7 30.3 433.3 30.7 450 28.8C466.7 27 483.3 23 500 23.3C516.7 23.7 533.3 28.3 550 28C566.7 27.7 583.3 22.3 600 21.8C616.7 21.3 633.3 25.7 650 28.7C666.7 31.7 683.3 33.3 700 30.8C716.7 28.3 733.3 21.7 750 20C766.7 18.3 783.3 21.7 800 24C816.7 26.3 833.3 27.7 850 26.8C866.7 26 883.3 23 891.7 21.5L900 20L900 0L891.7 0C883.3 0 866.7 0 850 0C833.3 0 816.7 0 800 0C783.3 0 766.7 0 750 0C733.3 0 716.7 0 700 0C683.3 0 666.7 0 650 0C633.3 0 616.7 0 600 0C583.3 0 566.7 0 550 0C533.3 0 516.7 0 500 0C483.3 0 466.7 0 450 0C433.3 0 416.7 0 400 0C383.3 0 366.7 0 350 0C333.3 0 316.7 0 300 0C283.3 0 266.7 0 250 0C233.3 0 216.7 0 200 0C183.3 0 166.7 0 150 0C133.3 0 116.7 0 100 0C83.3 0 66.7 0 50 0C33.3 0 16.7 0 8.3 0L0 0Z"
          fill="#443c3b"></path>
    <path d="M0 18L8.3 17.3C16.7 16.7 33.3 15.3 50 16.2C66.7 17 83.3 20 100 21C116.7 22 133.3 21 150 20C166.7 19 183.3 18 200 15.3C216.7 12.7 233.3 8.3 250 6.7C266.7 5 283.3 6 300 6.5C316.7 7 333.3 7 350 9.5C366.7 12 383.3 17 400 17C416.7 17 433.3 12 450 10.8C466.7 9.7 483.3 12.3 500 15C516.7 17.7 533.3 20.3 550 20.3C566.7 20.3 583.3 17.7 600 15.7C616.7 13.7 633.3 12.3 650 10.7C666.7 9 683.3 7 700 6.8C716.7 6.7 733.3 8.3 750 10C766.7 11.7 783.3 13.3 800 15C816.7 16.7 833.3 18.3 850 19.5C866.7 20.7 883.3 21.3 891.7 21.7L900 22L900 0L891.7 0C883.3 0 866.7 0 850 0C833.3 0 816.7 0 800 0C783.3 0 766.7 0 750 0C733.3 0 716.7 0 700 0C683.3 0 666.7 0 650 0C633.3 0 616.7 0 600 0C583.3 0 566.7 0 550 0C533.3 0 516.7 0 500 0C483.3 0 466.7 0 450 0C433.3 0 416.7 0 400 0C383.3 0 366.7 0 350 0C333.3 0 316.7 0 300 0C283.3 0 266.7 0 250 0C233.3 0 216.7 0 200 0C183.3 0 166.7 0 150 0C133.3 0 116.7 0 100 0C83.3 0 66.7 0 50 0C33.3 0 16.7 0 8.3 0L0 0Z"
          fill="#241c1c"></path>
</svg>