<svg id="visual" viewBox="0 0 900 100" width="900" height="100" xmlns="http://www.w3.org/2000/svg" xmlns:xlink="http://www.w3.org/1999/xlink" version="1.1"><rect x="0" y="0" width="900" height="100" fill="#183D47"></rect><path d="M0 30L18.8 32.7C37.7 35.3 75.3 40.7 112.8 38.8C150.3 37 187.7 28 225.2 24.5C262.7 21 300.3 23 337.8 23.8C375.3 24.7 412.7 24.3 450.2 27.5C487.7 30.7 525.3 37.3 562.8 38.2C600.3 39 637.7 34 675.2 34.2C712.7 34.3 750.3 39.7 787.8 39.5C825.3 39.3 862.7 33.7 881.3 30.8L900 28L900 101L881.3 101C862.7 101 825.3 101 787.8 101C750.3 101 712.7 101 675.2 101C637.7 101 600.3 101 562.8 101C525.3 101 487.7 101 450.2 101C412.7 101 375.3 101 337.8 101C300.3 101 262.7 101 225.2 101C187.7 101 150.3 101 112.8 101C75.3 101 37.7 101 18.8 101L0 101Z" fill="#183d47"></path><path d="M0 31L18.8 35.3C37.7 39.7 75.3 48.3 112.8 50.2C150.3 52 187.7 47 225.2 43.8C262.7 40.7 300.3 39.3 337.8 41.5C375.3 43.7 412.7 49.3 450.2 51.2C487.7 53 525.3 51 562.8 47.8C600.3 44.7 637.7 40.3 675.2 41.8C712.7 43.3 750.3 50.7 787.8 50.2C825.3 49.7 862.7 41.3 881.3 37.2L900 33L900 101L881.3 101C862.7 101 825.3 101 787.8 101C750.3 101 712.7 101 675.2 101C637.7 101 600.3 101 562.8 101C525.3 101 487.7 101 450.2 101C412.7 101 375.3 101 337.8 101C300.3 101 262.7 101 225.2 101C187.7 101 150.3 101 112.8 101C75.3 101 37.7 101 18.8 101L0 101Z" fill="#184b55"></path><path d="M0 61L18.8 59.5C37.7 58 75.3 55 112.8 52.3C150.3 49.7 187.7 47.3 225.2 49.8C262.7 52.3 300.3 59.7 337.8 63C375.3 66.3 412.7 65.7 450.2 63.2C487.7 60.7 525.3 56.3 562.8 53C600.3 49.7 637.7 47.3 675.2 48.7C712.7 50 750.3 55 787.8 58C825.3 61 862.7 62 881.3 62.5L900 63L900 101L881.3 101C862.7 101 825.3 101 787.8 101C750.3 101 712.7 101 675.2 101C637.7 101 600.3 101 562.8 101C525.3 101 487.7 101 450.2 101C412.7 101 375.3 101 337.8 101C300.3 101 262.7 101 225.2 101C187.7 101 150.3 101 112.8 101C75.3 101 37.7 101 18.8 101L0 101Z" fill="#185a61"></path><path d="M0 69L18.8 69C37.7 69 75.3 69 112.8 70.5C150.3 72 187.7 75 225.2 74.5C262.7 74 300.3 70 337.8 67.8C375.3 65.7 412.7 65.3 450.2 66.3C487.7 67.3 525.3 69.7 562.8 71.8C600.3 74 637.7 76 675.2 76.2C712.7 76.3 750.3 74.7 787.8 73.8C825.3 73 862.7 73 881.3 73L900 73L900 101L881.3 101C862.7 101 825.3 101 787.8 101C750.3 101 712.7 101 675.2 101C637.7 101 600.3 101 562.8 101C525.3 101 487.7 101 450.2 101C412.7 101 375.3 101 337.8 101C300.3 101 262.7 101 225.2 101C187.7 101 150.3 101 112.8 101C75.3 101 37.7 101 18.8 101L0 101Z" fill="#1a696c"></path><path d="M0 77L18.8 77.2C37.7 77.3 75.3 77.7 112.8 78C150.3 78.3 187.7 78.7 225.2 78C262.7 77.3 300.3 75.7 337.8 75C375.3 74.3 412.7 74.7 450.2 76.3C487.7 78 525.3 81 562.8 81.3C600.3 81.7 637.7 79.3 675.2 78C712.7 76.7 750.3 76.3 787.8 76.3C825.3 76.3 862.7 76.7 881.3 76.8L900 77L900 101L881.3 101C862.7 101 825.3 101 787.8 101C750.3 101 712.7 101 675.2 101C637.7 101 600.3 101 562.8 101C525.3 101 487.7 101 450.2 101C412.7 101 375.3 101 337.8 101C300.3 101 262.7 101 225.2 101C187.7 101 150.3 101 112.8 101C75.3 101 37.7 101 18.8 101L0 101Z" fill="#207876"></path></svg>